<svg xmlns="http://www.w3.org/2000/svg" viewBox="0 0 563.85 348.04"><title>자산 3300 px</title><g id="레이어_2" data-name="레이어 2"><g id="레이어_1-2" data-name="레이어 1"><path d="M166,14.08a17.05,17.05,0,0,0-9.54,1.14c-4.95,2.24-7.34,6.61-8.25,8.29-8.53,15.59-2.49,71.16-1.41,102,.4,11.62.16,21.38-.17,28.44,0,0-6.91,0-9.41,0-2.72,0-9.56-.27-12.27-.23,0,0-37.21-55.34-50.18-69.66Q58.93,66.37,43.53,50.74a101.63,101.63,0,0,0,1.63,28.79c6.16,30.37,24.32,53.86,33.17,61.95,0,1.19.22,10.85.18,12.28-1.38,0-40.34.23-58.49,0,0-1.45.23-12.28.23-12.28s15.8-15.25,16.36-61.62c.09-7.35-1.87-24.23-13-42a79.19,79.19,0,0,0-23-23.53c0-.35-.36-1.76-.35-2.12A77.47,77.47,0,0,0,0,2c20.25.07,40.65-.07,60.9,0,23.45,28.57,46.72,57.66,70.17,86.23.81-15.5,1-28.62.87-38.65-.05-6.08.15-17.19-5.57-25.95a21,21,0,0,0-6.28-6.41,19.1,19.1,0,0,0-12.57-2.89L107.66,2C127.2,1.64,166,2,166,2c0,1.61.06,3.24.08,4.89Q166.09,10.55,166,14.08Z"/><path d="M310.86,92.51q-3.08-26.12-15.06-41.82T268.14,29.18a88.83,88.83,0,0,0-30.92-5.79,74,74,0,0,0-7.87.42c-.58.09-1.27.18-2.09.28a8,8,0,0,0-2,.42,88.9,88.9,0,0,0-34.73,15.36q-15.42,11.31-22.37,27.51a85.59,85.59,0,0,0-6.95,34.07,128.41,128.41,0,0,0,.74,13.41q3.57,26.8,15.49,42.45t27.23,21a89.43,89.43,0,0,0,29.69,5.37q4.55,0,9.1-.42.36,0,1.29-.06a11.39,11.39,0,0,0,1.78-.28,5.93,5.93,0,0,1,1.23-.21,89.64,89.64,0,0,0,34.67-14.88,63.47,63.47,0,0,0,22.25-27.23,87.71,87.71,0,0,0,6.88-34.56A132.27,132.27,0,0,0,310.86,92.51ZM259.1,158.43q-3.69,16.33-12.54,22.34a3,3,0,0,1-1.48.28h-1.59q-9.72-3.63-16.91-18.29t-11.37-35.19Q211,107,210.72,95.1t-.3-14.74a149.39,149.39,0,0,1,3.07-31.7Q217,32.33,225.41,25.9a4.82,4.82,0,0,1,1.6-.7,6.86,6.86,0,0,1,1.11-.14,2.29,2.29,0,0,1,1.11.28q9.59,3.63,16.84,18.44t11.49,35.47q4.24,20.67,4.55,32.68t.31,14.66A139.64,139.64,0,0,1,259.1,158.43Z"/><path d="M388.15,0,366.66,87.54Q354,43.77,341.3,0H281.05l0,6.34v6a206,206,0,0,1,41.43,52.59c19.16,34.8,24.85,67.37,26.09,86.31h33.51c1.59-19.66,7.83-51.93,26.6-86.53a217.16,217.16,0,0,1,39.77-52.37V6.78L448.19,0S393.8.16,388.15,0Z"/><path d="M460,164.48a24.34,24.34,0,0,1-10.63-5.68,27,27,0,0,1-3.94-4.84c-5.71-9-6.81-25.37-7-27.94,3.5-.64,49.65-1.59,54.18.48.58,1.68,5.15,15.35,2.38,25.16a25,25,0,0,1-3.29,7.08c-2.13,2.82-4.57,4.22-6.29,5.74l-.06,12.28s64-.08,75.89,0c.09-1.51-.15-12.28-.15-12.28a308.94,308.94,0,0,1-29.66-45.28c-13.44-25.1-26.35-50-23.57-81.14A97.35,97.35,0,0,1,510,24.45c-21.88.3-43.91.25-65.79.55.64.4.31,12.1.87,12.33,1.27.56,7,2.12,8.82,4.9q-.36,2.15-3.64,14.32T441.64,86c-3,9.67-6.58,20.54-12.06,34.61C423.76,135.53,420.71,143,416,148.9c0,0-1,1.33-15.1,15.58v12.28l59.48-.53m-21-59.07A212.21,212.21,0,0,1,447,87.08q5.55-17.43,9.6-28.41c1.52-4.37,2.31-6.76,2.39-7.16q6.57,12.3,22.32,45.36a208,208,0,0,1,8.12,19.33C484.53,117.08,447.65,118,439.46,117.16Z"/><path d="M347.28,180.29h-4.46v0H272l.27,44.55h8.94a24.25,24.25,0,0,1,11.43-19.33c8.61-6,23.27-5.24,25.64-5,21.23,37,18.85,76.92.16,102.81a63.22,63.22,0,0,1-20.05,17.81L297.88,332l44.39-.22h0l44.59.22-.52-10.81a63.28,63.28,0,0,1-20.06-17.81c-18.68-25.89-21.07-65.85.17-102.81,2.36-.28,17-1.06,25.64,5a24.35,24.35,0,0,1,11.43,19.33h8.93l.27-44.55Z"/><path d="M261.52,348q-26.62.07-53.22.06-18.13,0-36.25-.06V337.15a81.3,81.3,0,0,0,28.36-32.59c11.42-24.32,9.55-54.39-5.14-77.57-3.43-5.4-10-10.67-22.37-18.38l-.67-12.05s29.58-.08,44.36-.14c15.11-.07,44.93-.15,44.93-.15v12.34c-13.37,5.56-20.54,13.15-24.1,17.71-20.95,26.78-12.15,69.59,7.36,94.76a79.92,79.92,0,0,0,16.73,16.06h0Z"/><path d="M96.45,238.37q13.38,1.92,21.25,10.39a113,113,0,0,1,14.68,20.17,174.76,174.76,0,0,0,11.4,17.19c5.15,6.9,9.35,12.05,16,16.41,4,2.6,12.16,7,24.8,7.62-3.14,1.16-7.89,3-13.68,5.24-8.74,3.45-8.79,3.69-12.37,4.86a98.73,98.73,0,0,1-18.62,4.06,34.36,34.36,0,0,1-4.89.36,26.34,26.34,0,0,1-11-2.27q-4.43-2.26-9.08-8.77t-9.54-14.86q-5-8.24-10.45-16.18a65.37,65.37,0,0,0-11.75-13.24,23.29,23.29,0,0,0-13.61-5.79A1.65,1.65,0,0,0,68.17,265a43,43,0,0,0,21.77,43.77L90.42,321H9.09C9,319.89,9,308.76,9,308.76c2.92-3.56,9.64-9.54,15-19.95,5.69-11.12,6.5-20.68,7.43-31.46,1.42-16.58,3.19-37.08-7.58-58.61C19,189.09,13.14,185.69,9.19,181.61c0-.07-.08-8.49-.08-8.56,0-2-.08-2.57-.1-3.78H75.79c-.78,3.36-1.51,5.44-2.2,8.91a334.5,334.5,0,0,0-6,79.41,42.19,42.19,0,0,1,3.58-3c11.9-8.93,20.38-17.28,26.62-26,3.11-4.36,14.38-20.15,11.41-39.86a47.13,47.13,0,0,0-7.79-19.46c21.52-.48,50.86.48,72.38,0-16.45,9.57-45.67,32.35-63.71,52.39C105,227.3,100.47,232.91,96.45,238.37Z"/><path d="M563.85,337H426l-.08-10.82c5-5.85,11.91-14.2,19.76-24.54,9.16-12.06,18.81-25,27.8-40.43a232.93,232.93,0,0,0,22.95-55.26,72.49,72.49,0,0,0-40.6,8.49,70.39,70.39,0,0,0-19,15.41c-1.22,0-2.46,0-3.73,0s-2.63,0-3.91,0q.18-22.27.35-44.55H559.15c0,3,.09,9.34.13,12.34a141.7,141.7,0,0,0-68.7,68.72c-7.74,16.49-18.61,39.66-9.37,49.79s34.23,1.59,40-.42A76.47,76.47,0,0,0,549.52,298c2.25-.12,5.8,0,5.8,0h0l4.09,0"/></g></g></svg>